<svg width="445" height="78" viewBox="0 0 445 78" fill="none" xmlns="http://www.w3.org/2000/svg">
<path d="M66.3581 49.7375C65.3669 50.5424 64.2183 51.1474 62.9072 51.5473C61.5961 51.9471 60.1381 52.1523 58.5333 52.1523C56.0212 52.1523 53.9181 51.6683 52.2347 50.7055C50.5512 49.7427 49.3974 48.317 48.7838 46.4388C48.4691 45.476 48.3013 44.4291 48.2698 43.298H83.3187L83.3974 41.6092C83.9323 36.9426 83.4656 32.9285 81.9919 29.5772C80.5182 26.2259 78.0323 23.6375 74.529 21.8119C71.0257 19.9863 66.6255 19.0762 61.3286 19.0762C60.736 19.0762 60.1538 19.0867 59.5769 19.113C59.4144 19.092 59.2518 19.0762 59.0892 19.0762H34.7128C32.5783 19.0762 30.8477 20.8123 30.8477 22.9536C30.8477 25.0948 32.5783 26.8309 34.7128 26.8309H40.6811C40.4451 27.0835 40.2091 27.3413 39.9888 27.6043C37.9749 29.9981 36.517 32.839 35.6097 36.1377H15.8222C13.6877 36.1377 11.957 37.8738 11.957 40.0151C11.957 42.1563 13.6877 43.8925 15.8222 43.8925H34.76C34.8702 46.0074 35.274 48.0276 35.9873 49.9374C36.5694 51.5052 37.3666 52.9257 38.342 54.2146H32.0119C29.8774 54.2146 28.1468 55.9508 28.1468 58.092C28.1468 60.2332 29.8774 61.9694 32.0119 61.9694H55.3394C55.5282 61.9694 55.7118 61.9957 55.8953 61.9694C56.5194 61.9957 57.154 61.9694 57.8096 61.9694C62.0366 61.9694 65.7812 61.417 69.0432 60.3174C72.3053 59.2179 75.0482 57.5396 77.2666 55.2879C79.485 53.0361 81.1318 50.2162 82.2017 46.8386H68.5607C68.0783 47.9645 67.344 48.9325 66.3528 49.7375H66.3581ZM70.1288 33.5598C70.454 34.37 70.6638 35.2275 70.7687 36.1377H49.581C49.9848 34.8487 50.5092 33.7071 51.1543 32.718C52.1193 31.2449 53.4147 30.1401 55.0457 29.4194C56.6767 28.6933 58.5857 28.3303 60.7832 28.3303C63.2428 28.3303 65.2462 28.788 66.7986 29.6982C68.351 30.6136 69.4576 31.8973 70.1288 33.5598Z" fill="#168EF7"/>
<path d="M137.08 26.2788C135.638 24.0534 133.671 22.3067 131.185 21.0494C128.7 19.7867 125.768 19.1606 122.401 19.1606C118.551 19.1606 115.179 20.0077 112.29 21.6965C110.024 23.0222 108.089 24.7216 106.479 26.7786L107.874 20.0498H95.0352L82.8418 78H96.8813L102.079 53.1048C103.017 55.2198 104.412 57.0348 106.269 58.5237C108.944 60.6702 112.662 61.7434 117.419 61.7434C121.163 61.7434 124.546 60.9911 127.567 59.4917C130.588 57.9923 133.115 55.8458 135.15 53.0522C137.185 50.2639 138.601 46.9652 139.404 43.151C140.043 39.9312 140.18 36.8745 139.802 33.9757C139.43 31.0769 138.517 28.5148 137.075 26.2893L137.08 26.2788ZM125.364 41.6884C124.992 43.6718 124.268 45.3658 123.198 46.76C122.128 48.1542 120.817 49.2538 119.265 50.0587C117.712 50.8636 116.003 51.2635 114.13 51.2635C112.258 51.2635 110.721 50.9531 109.358 50.3375C107.994 49.722 106.909 48.875 106.106 47.8017C105.304 46.7285 104.785 45.4658 104.543 44.019C104.302 42.5722 104.37 40.9887 104.743 39.2683C105.173 37.227 105.918 35.5014 106.987 34.0757C108.057 32.6552 109.379 31.5662 110.957 30.8138C112.536 30.0615 114.34 29.688 116.375 29.688C118.782 29.688 120.733 30.2088 122.233 31.2558C123.728 32.3027 124.761 33.7232 125.322 35.5225C125.883 37.3217 125.894 39.3735 125.364 41.6779V41.6884Z" fill="#168EF7"/>
<path d="M142.534 60.8436H156.574L165.159 20.0391H151.119L142.534 60.8436Z" fill="#168EF7"/>
<path d="M184.575 34.1234C185.54 32.7292 186.835 31.656 188.466 30.9036C190.097 30.1513 191.985 29.7778 194.125 29.7778C195.997 29.7778 197.576 30.0461 198.861 30.5827C200.146 31.1194 201.174 31.8822 201.95 32.8765C202.726 33.8709 203.245 35.0073 203.513 36.2962H216.671C216.619 32.9186 215.706 29.9251 213.944 27.3209C212.176 24.7167 209.664 22.707 206.402 21.2865C203.14 19.866 199.181 19.1558 194.529 19.1558C189.877 19.1558 185.666 19.866 182.052 21.2865C178.444 22.707 175.476 24.7851 173.147 27.5261C170.818 30.2618 169.229 33.592 168.375 37.5062C167.462 42.0149 167.677 46.108 169.014 49.7802C170.352 53.4577 172.796 56.3934 176.357 58.5925C179.912 60.7916 184.528 61.8911 190.197 61.8911C194.634 61.8911 198.525 61.2335 201.871 59.9182C205.212 58.603 208.023 56.6459 210.294 54.0417C212.565 51.4375 214.185 48.1809 215.15 44.2614H201.672C200.817 46.6236 199.532 48.3913 197.822 49.5751C196.107 50.7535 194.052 51.348 191.644 51.348C189.237 51.348 187.176 50.8009 185.629 49.6961C184.077 48.5965 183.059 47.1182 182.582 45.2715C182.105 43.4249 182.099 41.3941 182.582 39.195C182.954 37.2116 183.626 35.5228 184.585 34.1234H184.575Z" fill="url(#paint0_linear_22357_4820)"/>
<path d="M261.674 22.2966C257.93 20.2027 253.037 19.1558 246.99 19.1558C242.175 19.1558 237.938 19.866 234.272 21.2865C230.606 22.707 227.627 24.7851 225.325 27.5261C223.022 30.2618 221.418 33.6446 220.51 37.6693C219.598 42.2833 219.87 46.4132 221.313 50.0643C222.755 53.7155 225.325 56.6091 229.017 58.7556C232.709 60.9021 237.492 61.9753 243.376 61.9753C248.296 61.9753 252.627 61.2493 256.372 59.8025C260.117 58.3557 263.137 56.2618 265.44 53.5261C267.737 50.7904 269.315 47.4391 270.176 43.467C271.083 38.8005 270.831 34.6285 269.415 30.951C267.999 27.2788 265.419 24.3905 261.674 22.2966ZM256.141 41.6888C255.711 43.6722 254.967 45.3767 253.897 46.7972C252.827 48.2177 251.489 49.3173 249.885 50.0959C248.28 50.8745 246.381 51.2638 244.189 51.2638C241.619 51.2638 239.548 50.743 237.969 49.6961C236.391 48.6491 235.321 47.2128 234.76 45.3925C234.198 43.567 234.13 41.5046 234.56 39.195C235.043 37.2116 235.803 35.5228 236.847 34.1234C237.89 32.7292 239.212 31.6297 240.817 30.8247C242.422 30.0198 244.294 29.62 246.434 29.62C248.574 29.62 250.163 29.9304 251.526 30.5459C252.89 31.1614 253.975 32.0085 254.778 33.0817C255.58 34.155 256.089 35.4281 256.304 36.9065C256.519 38.3848 256.466 39.9789 256.141 41.694V41.6888Z" fill="#005CE6"/>
<path d="M316.951 22.2966C313.206 20.2027 308.313 19.1558 302.266 19.1558C297.452 19.1558 293.214 19.866 289.548 21.2865C285.882 22.707 282.903 24.7851 280.601 27.5261C278.299 30.2618 276.694 33.6446 275.787 37.6693C274.874 42.2833 275.147 46.4132 276.589 50.0643C278.031 53.7155 280.601 56.6091 284.293 58.7556C287.985 60.9021 292.768 61.9753 298.653 61.9753C303.572 61.9753 307.904 61.2493 311.648 59.8025C315.393 58.3557 318.414 56.2618 320.716 53.5261C323.013 50.7904 324.592 47.4391 325.452 43.467C326.359 38.8005 326.107 34.6285 324.691 30.951C323.275 27.2788 320.695 24.3905 316.951 22.2966ZM311.418 41.6888C310.988 43.6722 310.243 45.3767 309.173 46.7972C308.103 48.2177 306.766 49.3173 305.161 50.0959C303.556 50.8745 301.658 51.2638 299.465 51.2638C296.896 51.2638 294.824 50.743 293.246 49.6961C291.667 48.6491 290.597 47.2128 290.036 45.3925C289.475 43.567 289.407 41.5046 289.837 39.195C290.319 37.2116 291.08 35.5228 292.123 34.1234C293.167 32.7292 294.488 31.6297 296.093 30.8247C297.698 30.0198 299.57 29.62 301.71 29.62C303.85 29.62 305.439 29.9304 306.803 30.5459C308.166 31.1614 309.252 32.0085 310.054 33.0817C310.856 34.155 311.365 35.4281 311.58 36.9065C311.795 38.3848 311.743 39.9789 311.418 41.694V41.6888Z" fill="#005CE6"/>
<path d="M341.342 0L328.587 60.8438H342.626L355.46 0H341.342Z" fill="#005CE6"/>
<path d="M393.694 21.8119C390.19 19.9863 385.79 19.0762 380.493 19.0762C375.731 19.0762 371.562 19.8127 367.975 21.2911C364.393 22.7694 361.45 24.8738 359.148 27.6096C356.846 30.3453 355.267 33.6755 354.412 37.5897C353.5 42.0984 353.741 46.2178 355.136 49.9427C356.526 53.6727 359.028 56.6084 362.636 58.7549C366.244 60.9014 371.022 61.9746 376.958 61.9746C381.185 61.9746 384.93 61.4222 388.192 60.3227C391.454 59.2231 394.197 57.5448 396.415 55.2931C398.634 53.0414 400.281 50.2215 401.351 46.8439H387.71C387.227 47.9698 386.493 48.9378 385.502 49.7427C384.51 50.5477 383.362 51.1527 382.051 51.5525C380.74 51.9524 379.282 52.1575 377.677 52.1575C375.165 52.1575 373.062 51.6735 371.378 50.7108C369.695 49.748 368.541 48.3223 367.927 46.4441C367.613 45.4813 367.445 44.4343 367.413 43.3032H402.462L402.541 41.6144C403.076 36.9479 402.609 32.9337 401.135 29.5825C399.662 26.2312 397.176 23.6427 393.673 21.8172L393.694 21.8119ZM374.195 29.4141C375.826 28.6881 377.735 28.3251 379.932 28.3251C382.392 28.3251 384.395 28.7828 385.947 29.6929C387.5 30.6084 388.606 31.892 389.278 33.5545C389.603 34.3647 389.813 35.2223 389.918 36.1324H368.73C369.134 34.8435 369.658 33.7018 370.303 32.7128C371.268 31.2397 372.564 30.1349 374.195 29.4141Z" fill="#005CE6"/>
<path d="M443.353 19.5551H441.471C438.151 19.5551 435.214 20.2916 432.644 21.77C430.074 23.2483 427.872 25.4316 426.026 28.3305C425.643 28.9302 425.281 29.5668 424.924 30.2297L427.106 20.0391H414.189L405.604 60.8437H419.643L422.69 46.2758C423.277 43.6453 424.054 41.4725 425.019 39.7574C425.984 38.0423 427.253 36.6482 428.831 35.5696C430.41 34.4964 432.293 33.7704 434.49 33.3968C436.682 33.0233 439.252 32.8865 442.194 32.9917L445 19.6287C444.518 19.5761 443.972 19.5498 443.353 19.5498V19.5551Z" fill="#005CE6"/>
<path d="M24.3816 19.0762H3.60821C1.61545 19.0762 0 20.6967 0 22.6958V23.2113C0 25.2104 1.61545 26.8309 3.60821 26.8309H24.3816C26.3744 26.8309 27.9898 25.2104 27.9898 23.2113V22.6958C27.9898 20.6967 26.3744 19.0762 24.3816 19.0762Z" fill="#168EF7"/>
<path d="M169.03 10.1166C169.03 7.9754 167.299 6.23926 165.165 6.23926H156.233C154.099 6.23926 152.368 7.9754 152.368 10.1166C152.368 12.2579 154.099 13.994 156.233 13.994H165.165C167.299 13.994 169.03 12.2579 169.03 10.1166Z" fill="#168EF7"/>
<defs>
<linearGradient id="paint0_linear_22357_4820" x1="192.246" y1="19.1558" x2="192.246" y2="61.8911" gradientUnits="userSpaceOnUse">
<stop stop-color="#168EF7"/>
<stop offset="1" stop-color="#005CE6"/>
</linearGradient>
</defs>
</svg>
